Coordinates
version=1
nRows=22
nColumns=24
inDegrees=yes

Units are S.I. units (second, meters, Newtons, ...)
Angles are in degrees.

endheader
time	pelvis_tilt	pelvis_list	pelvis_rotation	pelvis_tx	pelvis_ty	pelvis_tz	hip_flexion_r	hip_adduction_r	hip_rotation_r	knee_angle_r	ankle_angle_r	subtalar_angle_r	mtp_angle_r	hip_flexion_l	hip_adduction_l	hip_rotation_l	knee_angle_l	ankle_angle_l	subtalar_angle_l	mtp_angle_l	lumbar_extension	lumbar_bending	lumbar_rotation
      1.06500000	     13.01892041	     -0.13951810	     -1.71552344	     -0.65250354	      0.93724745	     -0.01309077	    -30.45283138	      2.57348870	    -11.17531883	     -9.25548853	     25.29413778	      0.60665670	     19.27886367	     -0.05647812	      3.46169860	    -15.75402977	      8.27407582	      3.59958715	     -4.11363715	     38.53881421	    -20.44843001	     -0.88116364	      4.71822949
      1.07000000	     13.06981778	      0.06061991	     -1.99114979	     -0.64621385	      0.93673883	     -0.01290496	    -30.73102389	      2.16632740	    -10.97675819	     -9.61453136	     25.26922469	      0.72235636	     19.40824129	     -0.01030944	      3.65758076	    -15.77979051	      7.76633531	      3.18942288	     -4.65234673	     38.51068718	    -20.47067206	     -1.25639077	      4.89144584
      1.07500000	     13.11181498	      0.30285453	     -2.14262486	     -0.63992504	      0.93626034	     -0.01293046	    -30.98940282	      1.77148182	    -10.93184766	     -9.99494866	     25.13253410	      0.85022989	     20.05664524	      0.03913846	      3.88382380	    -15.34706025	      7.20872443	      2.62051205	     -5.87164904	     38.71218184	    -20.48759518	     -1.63656399	      4.89791216
      1.08000000	     13.14246170	      0.55513286	     -2.34550858	     -0.63364994	      0.93588534	     -0.01289904	    -31.18643294	      1.33428508	    -10.79968971	    -10.45480725	     24.95457684	      0.92673659	     20.95348426	      0.13168138	      4.11499200	    -15.05610176	      6.52601929	      2.04122002	     -6.98161996	     39.09000439	    -20.49247768	     -2.04471773	      4.97827334
      1.08500000	     13.15992504	      0.83420916	     -2.52139745	     -0.62736095	      0.93557560	     -0.01291410	    -31.33228418	      0.87972569	    -10.68227874	    -10.97930844	     24.71957726	      0.95325654	     22.01043981	      0.25570682	      4.36805351	    -14.73197745	      5.75869395	      1.45361210	     -8.10632782	     39.53618297	    -20.48229704	     -2.47403941	      5.02340647
      1.09000000	     13.15506229	      1.12898776	     -2.67729848	     -0.62109273	      0.93533377	     -0.01297204	    -31.40713200	      0.41401046	    -10.56653651	    -11.58535646	     24.46090000	      0.96287562	     23.08225889	      0.43012164	      4.63078664	    -14.37794522	      4.89436457	      0.89199844	     -9.24116731	     39.92251491	    -20.45160753	     -2.91504650	      5.05864059
      1.09500000	     13.14095451	      1.43509309	     -2.79650091	     -0.61484091	      0.93515979	     -0.01311479	    -31.42630266	     -0.05187342	    -10.46277666	    -12.27163521	     24.13789839	      0.94123581	     24.25921325	      0.62602457	      4.90521048	    -13.95063401	      3.97259754	      0.35958865	    -10.43209767	     40.25830078	    -20.41621247	     -3.35450661	      5.05350573
      1.10000000	     13.07804339	      1.73409869	     -2.90188119	     -0.60860519	      0.93501641	     -0.01331512	    -31.33491290	     -0.51267164	    -10.31439011	    -13.06205575	     23.76986910	      0.93047538	     25.45673512	      0.89724193	      5.17051500	    -13.50614565	      2.97026762	     -0.06523462	    -11.63027460	     40.49631510	    -20.33089193	     -3.77592460	      5.04202386
      1.10500000	     13.09581273	      2.06664614	     -3.01153815	     -0.60231798	      0.93506812	     -0.01351055	    -31.29560871	     -1.01051077	    -10.18026105	    -13.89664786	     23.18972122	      0.71217520	     27.93683354	      1.05005603	      5.48504212	    -13.14070471	      2.00412516	     -0.52152974	    -12.67780444	     41.03395929	    -20.32979158	     -4.24272711	      5.03176763
      1.11000000	     12.95705046	      2.37221943	     -2.99207095	     -0.59616958	      0.93497500	     -0.01393624	    -30.99698928	     -1.42913864	    -10.09804691	    -14.92470393	     22.79258299	      0.64651074	     28.79916889	      1.43972264	      5.76012505	    -12.57886503	      0.89057104	     -0.83066091	    -13.78875831	     40.99609146	    -20.18590066	     -4.62765282	      4.88026593
      1.11500000	     12.83443160	      2.67610149	     -2.96843801	     -0.59001372	      0.93497196	     -0.01441880	    -30.65210017	     -1.85685834	    -10.01325440	    -16.05638489	     22.23390998	      0.49710125	     30.41125412	      1.78621637	      6.04990327	    -11.99901331	     -0.19502646	     -1.08946887	    -14.91213054	     40.90973488	    -20.06168553	     -5.00675360	      4.75085719
      1.12000000	     12.67634305	      2.95538172	     -2.93583728	     -0.58387163	      0.93498910	     -0.01496041	    -30.18914588	     -2.26975261	     -9.90254416	    -17.32897294	     21.59836991	      0.31076707	     32.30259087	      2.16360067	      6.32212658	    -11.46447161	     -1.28895225	     -1.19760330	    -15.86493621	     40.74497179	    -19.90177835	     -5.34934833	      4.64132442
      1.12500000	     12.54341849	      3.20581859	     -2.92849736	     -0.57777498	      0.93508934	     -0.01551360	    -29.66562579	     -2.68339259	     -9.73269657	    -18.74202440	     20.90220964	      0.12689707	     34.63101186	      2.48588854	      6.57657955	    -10.98469049	     -2.34504081	     -1.17221423	    -16.68324073	     40.42164270	    -19.77574122	     -5.66494525	      4.58780732
      1.13000000	     12.29652660	      3.43448278	     -2.78570806	     -0.57177999	      0.93506514	     -0.01626910	    -28.94134621	     -3.01716023	     -9.65294639	    -20.31593422	     20.23135283	     -0.05899355	     35.78772648	      2.97690065	      6.80615198	    -10.43339915	     -3.50215328	     -0.99036617	    -17.29587306	     40.17429062	    -19.55178160	     -5.91010273	      4.38342416
      1.13500000	     12.10872827	      3.66871611	     -2.76004478	     -0.56568404	      0.93520035	     -0.01693692	    -28.20955036	     -3.43292724	     -9.48346289	    -21.96374988	     19.26583067	     -0.31286435	     38.65010660	      3.30509148	      7.07087545	    -10.05556360	     -4.47631000	     -0.86436569	    -17.94814503	     39.47950126	    -19.36939595	     -6.19024564	      4.31046975
      1.14000000	     11.79992077	      3.85157358	     -2.62171258	     -0.55976598	      0.93515082	     -0.01776351	    -27.23993681	     -3.75618503	     -9.35697604	    -23.82667308	     18.46701771	     -0.47143806	     39.66121129	      3.81272183	      7.27126676	     -9.61624946	     -5.55573884	     -0.46492787	    -18.30299320	     39.20347369	    -19.08766256	     -6.37717617	      4.14411432
      1.14500000	     11.54929563	      4.05431678	     -2.59594636	     -0.55373446	      0.93525534	     -0.01851168	    -26.26903215	     -4.16742674	     -9.15409007	    -25.73574686	     17.28517601	     -0.79573714	     42.80958248	      4.13304603	      7.52086009	     -9.30097441	     -6.39662258	     -0.15402294	    -18.68779602	     38.16301593	    -18.84194943	     -6.61069071	      4.10005402
      1.15000000	     11.19255285	      4.21782304	     -2.55578146	     -0.54786179	      0.93517510	     -0.01930669	    -25.05758698	     -4.55098134	     -8.92563297	    -27.87248690	     16.33878952	     -0.81422394	     43.44445713	      4.59643753	      7.71821284	     -9.06140709	     -7.28904873	      0.35088402	    -18.87691071	     37.96885918	    -18.49802074	     -6.78940199	      4.05549694
      1.15500000	     10.87537524	      4.39439891	     -2.47643454	     -0.54202771	      0.93517743	     -0.02015876	    -23.85625511	     -4.92458369	     -8.73001790	    -30.00214365	     14.99991265	     -1.31280276	     46.71646731	      4.96683468	      7.94848427	     -8.75000173	     -8.09128721	      0.87104540	    -19.03596262	     36.56257491	    -18.20769166	     -6.97187261	      3.94555702
      1.16000000	     10.43994138	      4.53382863	     -2.41723030	     -0.53626571	      0.93500843	     -0.02099797	    -22.42763673	     -5.28094801	     -8.47599195	    -32.29029166	     13.78585854	     -1.45967327	     47.40451019	      5.44663172	      8.12763019	     -8.58270518	     -8.84506083	      1.40216051	    -19.05293303	     36.21831848	    -17.78750452	     -7.11259652	      3.89509888
      1.16500000	     10.07753386	      4.70139018	     -2.43973447	     -0.53050750	      0.93494451	     -0.02173632	    -21.02944761	     -5.68903302	     -8.13722082	    -34.57215684	     12.34983482	     -1.87755094	     50.03902764	      5.77616159	      8.34694998	     -8.46155973	     -9.46632774	      2.05790803	    -18.99920404	     34.56768254	    -17.43672956	     -7.30548061	      3.90713561
      1.17000000	      9.63806346	      4.85507843	     -2.49699711	     -0.52481798	      0.93475925	     -0.02242336	    -19.46908023	     -6.09180749	     -7.73455472	    -36.95383154	     11.03647225	     -2.02423427	     50.37656799	      6.17209519	      8.53859748	     -8.47422222	    -10.03304342	      2.63316078	    -18.97087872	     34.33165679	    -16.99973887	     -7.48624490	      3.94663335
